<?xml version="1.0" standalone="no"?>
<!DOCTYPE svg PUBLIC "-//W3C//DTD SVG 20010904//EN"
 "http://www.w3.org/TR/2001/REC-SVG-20010904/DTD/svg10.dtd">
<svg version="1.0" xmlns="http://www.w3.org/2000/svg"
 width="32.000000pt" height="32.000000pt" viewBox="0 0 32.000000 32.000000"
 preserveAspectRatio="xMidYMid meet">

<g transform="translate(0.000000,32.000000) scale(0.100000,-0.100000)"
fill="#000000" stroke="none">
<path d="M90 282 l-65 -38 0 -84 0 -84 68 -38 67 -38 68 38 67 38 0 84 0 84
-65 38 c-36 21 -67 38 -70 38 -3 0 -34 -17 -70 -38z m115 -45 c39 -22 40 -24
40 -76 0 -35 -5 -56 -12 -58 -9 -3 -13 7 -13 31 0 20 -3 36 -7 36 -21 -1 -32
-20 -35 -60 -2 -32 -7 -45 -18 -45 -11 0 -16 13 -18 46 -3 41 -7 48 -38 65
-19 10 -32 23 -30 29 4 12 21 11 63 -6 24 -10 36 -10 44 -2 8 8 3 16 -21 28
-25 13 -30 19 -19 26 19 12 18 12 64 -14z m-105 -104 c0 -47 -24 -38 -28 10
-3 30 0 36 12 31 10 -4 16 -19 16 -41z"/>
</g>
</svg>
